<svg id="Layer_1" data-name="Layer 1" xmlns="http://www.w3.org/2000/svg" viewBox="0 0 6882.38 6882.4"><defs><style>.cls-1{fill:#fff;}</style></defs><title>icone-instagram</title><path class="cls-1" d="M5841.9,7659.28H2877.2c-1080.07,0-1958.82-878.71-1958.82-1958.78V2735.66c0-1080.07,878.75-1958.78,1958.82-1958.78H5841.9c1080.07,0,1958.87,878.71,1958.87,1958.78V5700.5C7800.77,6780.57,6922,7659.28,5841.9,7659.28ZM2877.2,1366.81c-754.84,0-1368.95,614-1368.95,1368.85V5700.5c0,754.74,614.11,1368.9,1368.95,1368.9H5841.9c754.84,0,1368.95-614.16,1368.95-1368.9V2735.66c0-754.84-614.11-1368.85-1368.95-1368.85Z" transform="translate(-918.38 -776.89)"/><path class="cls-1" d="M4359.57,5980.33c-971.72,0-1762.24-790.52-1762.24-1762.3s790.52-1762.2,1762.24-1762.2,1762.2,790.57,1762.2,1762.2S5331.2,5980.33,4359.57,5980.33Zm0-2934.52c-646.44,0-1172.32,525.83-1172.32,1172.23s525.88,1172.33,1172.32,1172.33S5531.85,4864.43,5531.85,4218,5006,3045.81,4359.57,3045.81Z" transform="translate(-918.38 -776.89)"/><path class="cls-1" d="M6620.88,2355.11c0,233.89-189.64,423.47-423.52,423.47S5773.78,2589,5773.78,2355.11s189.68-423.67,423.57-423.67S6620.88,2121.17,6620.88,2355.11Z" transform="translate(-918.38 -776.89)"/></svg>