<svg id="Layer_1" data-name="Layer 1" xmlns="http://www.w3.org/2000/svg" viewBox="0 0 6934.1 5632.44"><defs><style>.cls-1{fill:#fff;}</style></defs><title>icone-twitter</title><path class="cls-1" d="M8061.16,2134.5c-254.06,112.67-529.22,190.67-816.86,224.8,294.13-176.05,518.38-455,626.19-787.61-275.19,163-579.62,281.67-905.71,345A1420,1420,0,0,0,5928,1468.22c-784.9,0-1421.92,637-1421.92,1421.92,0,112.13,13,219.93,36.29,323.94-1183-59.59-2230.12-624.57-2932.68-1485.85-123,209.63-192.85,455-192.85,715.56,0,493,251.88,929,632.69,1182.5-232.9-6-450.68-71.5-643-177.67V3466c0,689.57,490.77,1264.83,1140.23,1396.46-118.63,31.43-245.37,48.2-374.29,48.2a1437.22,1437.22,0,0,1-268.68-24.91c182,565,706.35,975,1328.75,988-487,380.79-1100.71,607.21-1767,607.21A3052,3052,0,0,1,1127.06,6462c630.5,404.08,1377.5,638.64,2181.35,638.64,2615.27,0,4045.85-2166.74,4045.85-4045.29l-4.33-184.17a2865.57,2865.57,0,0,0,711.22-736.7Zm0,0" transform="translate(-1127.06 -1468.22)"/></svg>