<svg id="Layer_1" data-name="Layer 1" xmlns="http://www.w3.org/2000/svg" viewBox="0 0 6880.66 5229.74"><defs><style>.cls-1{fill:#fff;}.cls-2{fill:#c61e1e;}</style></defs><title>logo-sptrilhas-negativo</title><path class="cls-1" d="M1895.17,5954.92a846.29,846.29,0,0,0-101,6.55q-54.27,6.55-106.62,14-37.44,5.61-72,9.35t-62.66,5.61q-13.09,41.15-26.19,72.95t-28.06,61.73q-15,31.8-27.12,64.53t-23.38,70.14a581,581,0,0,0-30.86,55.18q-12.19,25.25-19.64,57-22.45,28.06-33.67,58.92a551,551,0,0,0-16.83,53.31l-7.48,22.45c-7.48,7.48-11.87,13.4-13.09,17.77s-4.38,8.42-9.35,12.16q-1.87,20.58-13.09,41.15a111.48,111.48,0,0,0-5.61,17.77,64,64,0,0,0-1.87,12.16q0,18.7-9.35,24.32a52.8,52.8,0,0,1,0,19.64c-1.25,6.86-2.51,13.4-3.74,19.64q-5.61,22.45-3.74,35.54,5.61,7.48,10.29,13.09c3.1,3.74,5.3,8.73,6.55,15q11.22,7.48,16.83,9.35,7.45,5.61,22.45,13.09l16.83,18.7q9.35,54.24-16.83,86-28.06,35.54-95.39,35.54h-22.45q-9.38-9.35-11.22-15c-10-3.74-18.08-6.86-24.32-9.35s-11.87-7.48-16.83-15q-24.32-11.22-39.28-18.7l-16.83-9.35v-22.45a119.4,119.4,0,0,1-19.64-37.41,327.41,327.41,0,0,1-10.29-41.15q-3.77-16.83-8.42-31.8a102.17,102.17,0,0,0-12.16-26.19q-3.77-108.49,20.58-183.31t50.5-144q15-37.41,29.93-75.75a791,791,0,0,0,26.19-79.49l16.83-18.7q13.06-29.93,21.51-49.57t17.77-40.21q5.61-13.09,10.29-25.25t8.42-21.51q-11.22,0-20.58.94c-6.25.62-12.47,1.56-18.7,2.81q-11.22,1.87-20.58,2.81c-6.25.62-12.47.94-18.7.94q-13.09,0-18.7-1.87a107.33,107.33,0,0,1-44.89,9.35h-18.7a52.41,52.41,0,0,1-10.29-.94,43.35,43.35,0,0,0-8.42-.94q-18.7,0-29.93,5.61H989.87a58.58,58.58,0,0,0-9.35.94,58.78,58.78,0,0,1-9.35.94,152.67,152.67,0,0,1-28.06-2.81q-15-2.81-31.8-12.16-22.45-29.93-29.93-31.8l-16.83-22.45a121,121,0,0,0-5.61-21.51c-2.51-6.86-5-14.65-7.48-23.38q-7.48-18.7-14-40.21t-6.55-51.44c1.23-10,3.74-17.46,7.48-22.45s6.84-9.35,9.35-13.09l5.61-28.06,24.32,1.87H930q59.85,0,121.58-4.68t127.19-10.29q37.41-3.74,75.75-7.48t79.49-7.48q7.45-16.83,15-31.8l18.7-9.35q33.67-1.87,47.7,8.42a204.46,204.46,0,0,1,23.38,19.64q41.12-3.74,83.24-8.42t85.11-12.16q63.57-9.35,128.13-16.83a1080.36,1080.36,0,0,1,124.39-7.48q26.19,0,50.5,1.87a442.13,442.13,0,0,1,44.89,5.61l18.7,13.09a70.35,70.35,0,0,0,15.9,20.58q10.26,9.35,21.51,18.7a431.46,431.46,0,0,1,44.89,48.63q22.45,28.06,16.83,82.3-15,22.45-22.45,26.19l-16.83,22.45-18.7-1.87a71.38,71.38,0,0,0-20.58,2.81c-6.25,1.87-12.47,4.05-18.7,6.55a157.91,157.91,0,0,1-15,6.55,108.85,108.85,0,0,1-16.83,4.68c-11.22,0-20.28-.31-27.12-.94S1902.66,5954.92,1895.17,5954.92Z" transform="translate(-830.88 -1692.96)"/><path class="cls-1" d="M2050.42,6660.09q-20.6,74.82-36.47,113.16t-47.7,79.49q-24.32-3.74-33.67,5.61a135.52,135.52,0,0,1-20.58,16.83c-11.22,2.49-19.35,2.49-24.32,0a67.51,67.51,0,0,1-13.09-8.42,91.08,91.08,0,0,0-14-9.35q-8.42-4.68-25.25-4.68-3.77-15-8.42-28.06t-25.25-9.35c2.49-10,3.1-18.39,1.87-25.25a136.51,136.51,0,0,0-4.68-18.7,164.35,164.35,0,0,1-4.68-16.83c-1.25-5.61-.64-12.78,1.87-21.51-6.25,0-11.22-4.36-15-13.09a260.4,260.4,0,0,0-13.09-26.19q5.61-33.67,11.22-63.6a461.08,461.08,0,0,1,14-56.11q8.42-26.19,14-52.37t-5.61-54.24q7.45,5.61,11.22-2.81t5.61-22.45a215.42,215.42,0,0,0,1.87-28.06,123.7,123.7,0,0,0-1.87-23.38,781.19,781.19,0,0,0,30.86-100.07q12.16-51.44,22.45-101.94t21.51-99.13a474.08,474.08,0,0,1,29.93-89.78q20.58-3.74,45.83,4.68t30.86,21.51q48.63-37.41,86-90.72t76.69-103.81a565.62,565.62,0,0,1,87-89.78q47.7-39.28,120.64-46.76,37.41,28.06,83.24,57a244,244,0,0,1,75.75,75.75,135.57,135.57,0,0,1,25.25,15.9,242.23,242.23,0,0,0,25.25,17.77v22.45a170.39,170.39,0,0,1,36.47,47.7,492.21,492.21,0,0,1,25.25,58l22.45,61.73a456.58,456.58,0,0,0,26.19,58.92q-3.74,9.35-3.74,15.9a40.07,40.07,0,0,0,2.81,14,137.77,137.77,0,0,1,4.68,15q1.87,7.48,0,20.58-5.61,82.3-53.31,132.8t-115,83.24a919.65,919.65,0,0,1-144,55.18q-76.72,22.45-138.41,48.63c0,5,2.16,7.48,6.55,7.48s5.9,3.12,4.68,9.35q44.89,28.06,71.08,44.89a460.86,460.86,0,0,0,49.57,28.06,370,370,0,0,0,50.5,19.64q27.09,8.42,75.75,19.64t75.75,17.77q27.12,6.55,49.57,11.22t45.83,7.48q23.38,2.81,66.4,6.55a162.08,162.08,0,0,1,29,40.21,153.94,153.94,0,0,1,15.9,46.76,183.16,183.16,0,0,1,1.87,44.89q-1.87,21.51-13.09,34.6,1.87,5.61,8.42,4.68a36.39,36.39,0,0,1,14,.94,66.79,66.79,0,0,0-18.7,18.7l-15,22.45a103.44,103.44,0,0,1-16.83,19.64q-9.35,8.42-26.19,10.29-58,22.45-145.9,2.81t-222.58-72q-67.34-26.19-109.42-45.83t-72.95-39.28a438.91,438.91,0,0,1-56.11-42.09Q2086,6691.89,2050.42,6660.09Zm267.48-641.57a352.45,352.45,0,0,1-45.83,54.24q-25.25,24.32-48.63,49.57a344.68,344.68,0,0,0-42.09,56.11q-18.7,30.86-26.19,72,65.47-7.48,136.54-36.47t134.67-55.18q-7.48-58-40.21-93.52T2317.9,6018.52Z" transform="translate(-830.88 -1692.96)"/><path class="cls-1" d="M3182,6723.68q9.35,56.11-6.55,87.91t-44.89,47.7q-29,15.9-66.4,17.77a331.11,331.11,0,0,1-71.08-3.74q-18.7-26.19-33.67-65.47t-28.06-81.37q-13.09-42.09-23.38-83.24t-17.77-72.95q9.35-22.45,12.16-51.44t3.74-58.92q.94-29.93,1.87-60.79a578.69,578.69,0,0,1,4.68-58.92A876.57,876.57,0,0,1,2951,6190.6a1030,1030,0,0,0,40.21-147.77,50.22,50.22,0,0,0-2.81-31.8q-6.55-15-2.81-28.06,1.87-7.48,11.22-10.29t11.22-12.16q5.61-20.58,2.81-33.67t6.55-31.8q9.35-15,23.38-44a107.91,107.91,0,0,0,10.29-60.79,208.59,208.59,0,0,0,31.8-26.19,310,310,0,0,1,30.86-27.12,199.39,199.39,0,0,1,35.54-21.51q19.64-9.35,47.7-9.35a96.76,96.76,0,0,1,19.64,41.15l9.35,44.89a185.47,185.47,0,0,0,14,42.09q9.35,19.64,31.8,30.86v37.41q0,22.45,1.87,44a151.15,151.15,0,0,0,8.42,39.28q6.55,17.77,21.51,23.38Q3270,6098.95,3241,6186.86a1648.19,1648.19,0,0,0-47.7,176.76,1158.28,1158.28,0,0,0-23.38,178.63A777.46,777.46,0,0,0,3182,6723.68Z" transform="translate(-830.88 -1692.96)"/><path class="cls-1" d="M3892.82,6834q-52.37,16.83-114.1,33.67a467.38,467.38,0,0,1-123.45,16.83q-93.52,0-147.77-46.76-9.35-20.58-16.83-28.06a138.8,138.8,0,0,1-10.29-15.9q-4.68-8.42-6.55-23.38a202.68,202.68,0,0,1-35.54-60.79,312.45,312.45,0,0,1-17.77-71.08,375.53,375.53,0,0,1,10.29-145,46.19,46.19,0,0,0,4.68-15q.94-7.48,2.81-16.83,7.48-29.93,15.9-58t23.38-48.63q-7.48-16.83,0-37.41a259.77,259.77,0,0,1,16.83-37.41q26.19-71.08,44-120.64t36.47-98.2q31.8-84.17,59.85-166.47t50.5-177.69q15-9.35,22.45-13.09,11.22-3.74,18.7-5.61,33.67,16.83,78.56,32.73t74.82,15.9q15,9.35,18.7,14a102,102,0,0,0,7.48,8.42,364.8,364.8,0,0,1,35.54,49.57q15,25.25,9.35,66.4-11.22,16.83-16.83,16.83-9.35,37.41-19.64,63.6t-21.51,52.37q-13.09,28.06-24.32,56.11t-18.7,69.21q-7.48,9.35-10.29,16.83t-6.55,16.83q-3.74,9.35-8.42,19.64a48,48,0,0,1-14,17.77q-5.61,48.63-17.77,78.56t-25.25,59.85q-22.45,54.24-40.21,108.49t-21.51,123.45a47.87,47.87,0,0,1,17.77-3.74h15.9q16.83,0,39.28,5.61,56.11-29.93,122.51-35.54t131.87-7.48h52.37a296.27,296.27,0,0,0,48.63-3.74q16.83,9.35,21.51,10.29a77.47,77.47,0,0,0,14,.94,116.18,116.18,0,0,1,22.45,1.87q22.45,20.58,43,29.93a440.56,440.56,0,0,0,43,16.83q20.58,7.48,40.21,15.9a166.59,166.59,0,0,1,38.34,23.38l13.09,80.43q13.09,16.83,11.22,22.45,0,15-7.48,22.45l3.74,20.58q-28.06,5.61-38.34,13.09a165.14,165.14,0,0,0-19.64,16.83,197.61,197.61,0,0,1-21.51,1.87h-12.16q-26.19,0-63.6,9.35a329.05,329.05,0,0,0-104.75-16.83q-20.58,0-43,1.87l-44.89,3.74q-22.45,3.74-45.83,5.61t-47.7,1.87Z" transform="translate(-830.88 -1692.96)"/><path class="cls-1" d="M5378,6673.18q3.74,48.63-11.22,80.43a160.65,160.65,0,0,1-41.15,54.24,205.71,205.71,0,0,1-59.85,35.54q-33.67,13.09-65.47,24.32-15-9.35-29-19.64a106.64,106.64,0,0,0-32.73-15.9q-24.32-44.89-46.76-79.49t-20.58-79.49q0-1.87,2.81-20.58t7.48-41.15q4.68-22.45,7.48-42.09t2.81-21.51q-43,3.74-89.78,18.7a760.41,760.41,0,0,0-90.72,35.54q-44,20.58-82.3,41.15t-62.66,35.54q0,5.61-7.48,27.12a432.45,432.45,0,0,1-18.7,44.89,298.56,298.56,0,0,1-24.32,42.09q-13.09,18.7-26.19,18.7a47.21,47.21,0,0,0,5.61,11.22q3.74,5.61,0,15a199,199,0,0,0-46.76,19.64,272.42,272.42,0,0,1-43,20.58,137.41,137.41,0,0,1-48.63,8.42q-26.19,0-61.73-18.7,0-11.22-9.35-19.64a148.6,148.6,0,0,0-19.64-15q-10.29-6.55-17.77-11.22t-7.48-8.42q-9.35,1.87-7.48-13.09t15-7.48q-20.58-26.19-25.25-45.83t-21.51-49.57q3.74-3.74,6.55-13.09t4.68-16.83q1.87-7.48,5.61-11.22t9.35,1.87q-3.74-16.83,0-28.06t7.48-20.58a106.63,106.63,0,0,0,5.61-18.7q1.87-9.35-5.61-20.58,29.93-41.15,39.28-88.85t11.22-87q13.09-13.09,23.38-37.41a286.52,286.52,0,0,0,15.9-49.57,189,189,0,0,0,4.68-48.63q-.94-23.38-6.55-38.34,1.87-9.35,20.58-5.61,11.22-61.73,15.9-139.35t15.9-147.77q11.22-70.14,37.41-123.45t84.17-70.14q11.22,39.28,29,69.21a514,514,0,0,0,39.28,57q21.51,27.12,43,55.18a444.73,444.73,0,0,1,40.21,63.6q-1.87,35.54-7.48,82.3t-14,95.39q-8.42,48.63-16.83,93.52t-15.9,76.69q1.87,9.35,10.29,11.22t2.81,16.83q44.89-11.22,93.52-20.58t97.26-20.58q48.63-11.22,94.46-25.25a495.61,495.61,0,0,0,85.11-34.6q9.35-72.95,24.32-145.9t3.74-149.64a55.21,55.21,0,0,0,15-18.7q5.61-11.22,18.7-15a246.35,246.35,0,0,1-7.48-74.82,269.56,269.56,0,0,1,14-74.82q12.16-35.54,35.54-60.79a107.91,107.91,0,0,1,57-32.73,379.27,379.27,0,0,1,35.54,64.53q15,34.6,30.86,69.21t33.67,65.47a187.61,187.61,0,0,0,45.83,53.31q5.61,54.24,8.42,112.23t4.68,117.84q-15,71.08-32.73,137.48t-25.25,141.22a116.36,116.36,0,0,0-20.58,33.67q-7.48,18.7-15,38.34a340.47,340.47,0,0,1-16.83,37.41,126.74,126.74,0,0,1-22.45,30.86q7.48,22.45,2.81,42.09T5378,6673.18Z" transform="translate(-830.88 -1692.96)"/><path class="cls-1" d="M6524.56,6697.49q-11.22,31.8-32.73,64.53a279.4,279.4,0,0,1-115,100.07,194.73,194.73,0,0,1-74.82,18.7q-24.32-5.61-32.73-12.16a178.46,178.46,0,0,0-17.77-12.16q-5.61-3.74-10.29-6.55t-8.42-4.68l-22.45-9.35,7.48-24.32q3.74-15-1.87-23.38t-22.45-23.38l-11.22-11.22a74.32,74.32,0,0,1-9.35-11.22l-31.8-35.54,50.5-13.09q46.76-13.09,62.66-33.67t12.16-69.21q-37.41-7.48-62.66-1.87t-51.44,13.09q-33.67,9.35-68.27,15.9t-75.75,6.55q-15,0-28.06-.94t-28.06-2.81l-18.7-3.74q-3.74-20.58-7.48-23.38a70.23,70.23,0,0,1-7.48-6.55q-9.35-9.35-19.64-25.25t-4.68-40.21A89.51,89.51,0,0,1,5883,6488a209.6,209.6,0,0,0-16.83,46.76l-7.48,18.7-18.7,3.74q-3.74,1.87-5.61,8.42a40.12,40.12,0,0,0-1.87,10.29l-9.35,31.8a70.23,70.23,0,0,1-7.48,6.55,70.23,70.23,0,0,0-7.48,6.55,339,339,0,0,1-9.35,33.67q-5.61,16.83-11.22,31.8-9.35,24.32-15.9,47.7a129.14,129.14,0,0,0-4.68,45.83l-7.48,20.58a78.13,78.13,0,0,1-20.58,17.77q-11.22,6.55-22.45,12.16a32.49,32.49,0,0,1-10.29,6.55q-6.55,2.81-10.29,4.68l-5.61,20.58-22.45,3.74q-20.58,3.74-29,5.61a91.32,91.32,0,0,1-19.64,1.87l-18.7-1.87q-20.58-16.83-31.8-27.12a179.14,179.14,0,0,0-26.19-19.64q-16.83-22.45-18.7-33.67t-3.74-20.58a101.38,101.38,0,0,1-4.68-18.7q-.94-7.48-4.68-11.22l-24.32-22.45,20.58-16.83,1.87-31.8q37.41-95.39,79.49-183.31t87-179.56q15-29.93,29-59.85t29-59.85a41.45,41.45,0,0,1-1.87-13.09q0-7.48,3.74-16.83,20.58-31.8,33.67-57t26.19-51.44q15-31.8,30.86-61.73a449.89,449.89,0,0,1,40.21-61.73l29.93-13.09q5.61-1.87,13.09-4.68a47.67,47.67,0,0,1,16.83-2.81l28.06,3.74a280,280,0,0,0,91.65-68.27q39.28-44,80.43-105.68l18.7-26.19,24.32,15q9.35,5.61,26.19,10.29t35.54,10.29q33.67,7.48,63.6,16.83t48.63,28.06q11.22,29.93,13.09,44.89a252.38,252.38,0,0,0,5.61,29.93q5.61,31.8,10.29,63.6t6.55,71.08q9.35,31.8,15.9,62.66t12.16,62.66q9.35,44.89,18.7,87a513.83,513.83,0,0,0,24.32,79.49q15,0,18.7,1.87a101.74,101.74,0,0,1,19.64-5.61q10.29-1.87,23.38-3.74l20.58-1.87,7.48,18.7q1.87,9.35,18.7,18.7,24.32,1.87,35.54,10.29a191.63,191.63,0,0,1,20.58,17.77,58.62,58.62,0,0,0,15,11.22l28.06,11.22-15,28.06q-18.7,33.67-53.31,64.53a329.47,329.47,0,0,1-77.62,51.44q1.87,11.22,2.81,21.51a95.48,95.48,0,0,0,4.68,21.51q5.61,31.8,9.35,65.47a321,321,0,0,1,0,69.21ZM5984,6373.9q56.11-3.74,101.94-8.42t101.94-15.9q-13.09-56.11-28.06-116.9T6128,6112l-11.22,18.7a798,798,0,0,0-72,87.91q-34.6,48.63-58.92,91.65L5963.42,6344q-11.22,16.83-20.58,33.67a130.91,130.91,0,0,1,21.51-1.87A100,100,0,0,0,5984,6373.9Z" transform="translate(-830.88 -1692.96)"/><path class="cls-1" d="M6640.52,6012.9a164.68,164.68,0,0,1,42.09-67.34,314.08,314.08,0,0,1,63.6-47.7,440.25,440.25,0,0,1,72-32.73q37.41-13.09,71.08-22.45,74.82-31.8,159.92-60.79t174-51.44a1039.36,1039.36,0,0,1,182.37-29q93.52-6.55,196.4,23.38a132.4,132.4,0,0,0,16.83,35.54q11.22,16.83,23.38,33.67t21.51,32.73a82,82,0,0,1,11.22,32.73,148,148,0,0,1,29.93,36.47q11.22,19.64,3.74,51.44-18.7,15-36.47,27.12a253.47,253.47,0,0,1-38.34,21.51,442.49,442.49,0,0,0-140.28-11.22q-71.08,5.61-127.19,9.35-16.83-16.83-40.21-16.83a171,171,0,0,0-48.63,7.48l-50.5,15q-25.25,7.48-47.7,3.74-18.7,15-45.83,19.64t-58.92,8.42q-1.87,9.35,3.74,12.16t1.87,12.16q11.22,13.09,29,18.7t37.41,11.22a160.23,160.23,0,0,1,34.6,14q15,8.42,20.58,27.12,28.06,0,48.63,13.09a117.46,117.46,0,0,1,33.67,31.8,141.67,141.67,0,0,1,19.64,40.21q6.55,21.51,6.55,38.34,5.61,15,13.09,13.09t16.83,7.48q5.61,24.32,28.06,49.57a208.49,208.49,0,0,1,35.54,55.18q3.74,46.76,5.61,83.24t-13.09,73.88a409.49,409.49,0,0,1-77.62,123.45,618.25,618.25,0,0,1-112.23,96.33,786.81,786.81,0,0,1-133.74,72,1446.77,1446.77,0,0,1-138.41,50.5,30.39,30.39,0,0,0-15,0q-7.48,1.87-3.74-9.35-15,13.09-32.73,16.83a152.27,152.27,0,0,1-38.34,2.81q-20.58-.94-42.09-2.81a141.86,141.86,0,0,0-40.21,1.87q-13.09-13.09-23.38-25.25t-15.9-30.86q-9.35,0-8.42-9.35t-6.55-9.35q11.22-18.7,10.29-21.51t-5.61-4.68a36.6,36.6,0,0,1-8.42-4.68q-3.74-2.81-1.87-8.42,7.48-15,5.61-34.6t-3.74-40.21a117.16,117.16,0,0,1,2.81-39.28q4.68-18.7,27.12-29.93,63.6,7.48,120.64-4.68a542.33,542.33,0,0,0,107.55-34.6,1069.43,1069.43,0,0,0,96.33-48.63q45.83-26.19,90.72-46.76,5.61-16.83,15.9-28.06a221.94,221.94,0,0,1,21.51-20.58,160.37,160.37,0,0,0,20.58-20.58q9.35-11.22,13.09-28.06,1.87-13.09-6.55-15.9t-8.42-14l-20.58-5.61q-35.54-20.58-80.43-34.6t-76.69-30.86q-20.58,11.22-38.34,5.61t-45.83-11.22q-63.6-3.74-122.51-13.09a446.57,446.57,0,0,1-113.16-33.67,73.2,73.2,0,0,0-9.35-16.83q-5.61-7.48-20.58-3.74-11.22-15-22.45-29a221.33,221.33,0,0,1-20.58-30.86q3.74-22.45,5.61-38.34t-11.22-30.86q7.48-24.32,11.22-39.28T6640.52,6012.9Z" transform="translate(-830.88 -1692.96)"/><path class="cls-2" d="M4099.55,3908.48q-60.67-111.53-182-201.39t-273-144.41q-151.68-54.59-316.69-81.29-490.18-72.77-914.83-317.9-36.42-19.35-77.66-82.46t-41.25-121.35q0-213.52,71.58-428.34t183.21-336.06q179.53-201.43,646.69-351.88t1052-150.46q349.42,0,539.94,53.39t190.47,165q0,182-49.72,281.5T4821.47,2325.1q-57,32.79-200.18,88.57-152.91,53.43-265.72,111.64T4162.64,2637q-80.08,53.37-99.48,53.39-24.26,0-24.28-19.44,0-41.21,86.16-125t212.34-146.83q133.45-70.32,133.46-89.78,0-31.45-148-31.52-449,0-829.9,80.08T2892.28,2569q-219.66,131-219.62,266.93,0,85,91,120.1t401.6,117.68Q3475.91,3156.25,3721,3263q351.82,150.45,521.7,313t169.86,364q0,138.3-66.71,277.84t-195.35,256q-128.65,116.49-296,191.72-143.21,60.61-360.37,114t-470.77,83.78q-253.62,30.28-484.12,30.32-424.68,0-683.11-80.12T1597.67,4571q0-72.77,87.37-226.91T1891.3,4136.6q104.31-41.21,201.41-47.31t97.07,23.07c0,4.83-2.42,9.66-7.27,14.54a63.76,63.76,0,0,1-17,12.12q-9.73,4.91-19.43,9.74-48.54,19.41-78.85,30.32t-48.53,21.82q-18.21,11-18.2,30.36,0,50.91,502.32,50.93,436.78,0,715.86-31.53t492.59-114.06A1376,1376,0,0,0,4099.55,3908.48Z" transform="translate(-830.88 -1692.96)"/><path class="cls-2" d="M5058.66,4003.37l740.16-1104.12Q5546.36,2909,5267.37,2972t-478.06,134.67q-199,71.6-355.5,135.88t-224.49,91c-11.3,0-22.68-4.05-33.94-12.16s-17-17.77-17-29.11q0-19.35,112.81-237.82T4537,2586.22q849.3-303.37,1499.64-303.33,752.22,0,1043.48,320.32,104.28,111.64,161.37,275.43t57,323.94q0,364-151.66,661.25t-433.13,515.7q-281.56,218.38-662.49,333.64T5216.4,4828.44q-80.08,0-327.6-29.11l-218.41,398q34,51,34,82.5,0,75.23-34,126.18-48.51,72.77-128.59,191.68t-108,157.74a363.62,363.62,0,0,1-63.09,68q-35.19,29.11-69.17,29.15-70.43,0-89.78-42.47t-19.44-117.68q0-106.85,105.6-338.55T4617,4738.65q-114.1-43.72-177.15-114.06t-63-138.3q0-150.46,172.28-279.09T5058.66,4003.37Zm252.36,65.5-138.3,233q92.18,4.85,163.78,9.7t120.14,4.83q424.65,0,736.49-114t495-282.71Q6871.37,3751,6953.9,3581.15t82.49-283.92q0-157.7-126.18-247.52t-362.79-122.55q-236.61-32.79-610.31-32.77,4.85,26.77,4.87,65.54,0,126.2-133.46,332.44l-422.26,662.49,317.9-36.4q38.81,0,38.81,36.4,0,31.56-63.09,43.64Z" transform="translate(-830.88 -1692.96)"/></svg>